<svg width="47" height="47" viewBox="0 0 47 47" fill="none" xmlns="http://www.w3.org/2000/svg">
<path d="M23.5 44.0625C18.0465 44.0625 12.8163 41.8961 8.96012 38.0399C5.1039 34.1837 2.9375 28.9535 2.9375 23.5C2.9375 18.0465 5.1039 12.8163 8.96012 8.96012C12.8163 5.1039 18.0465 2.9375 23.5 2.9375C28.9535 2.9375 34.1837 5.1039 38.0399 8.96012C41.8961 12.8163 44.0625 18.0465 44.0625 23.5C44.0625 28.9535 41.8961 34.1837 38.0399 38.0399C34.1837 41.8961 28.9535 44.0625 23.5 44.0625ZM23.5 47C29.7326 47 35.7099 44.5241 40.117 40.117C44.5241 35.7099 47 29.7326 47 23.5C47 17.2674 44.5241 11.2901 40.117 6.88299C35.7099 2.47589 29.7326 0 23.5 0C17.2674 0 11.2901 2.47589 6.88299 6.88299C2.47589 11.2901 0 17.2674 0 23.5C0 29.7326 2.47589 35.7099 6.88299 40.117C11.2901 44.5241 17.2674 47 23.5 47Z" fill="#9100C4"/>
<path d="M12.5868 36.5219C12.9241 36.7167 13.325 36.7695 13.7013 36.6687C14.0775 36.5679 14.3983 36.3217 14.5931 35.9844C15.4952 34.4206 16.7934 33.1222 18.357 32.2197C19.9206 31.3173 21.6943 30.8427 23.4996 30.8438C27.3037 30.8438 30.626 32.9088 32.4061 35.9844C32.6022 36.319 32.9228 36.5624 33.2977 36.6615C33.6727 36.7607 34.0717 36.7075 34.4076 36.5135C34.7434 36.3196 34.989 36.0007 35.0906 35.6264C35.1922 35.2521 35.1417 34.8528 34.95 34.5156C33.79 32.5053 32.121 30.8361 30.1109 29.6758C28.1008 28.5155 25.8205 27.9052 23.4996 27.9062C21.1788 27.9058 18.8987 28.5164 16.8887 29.6766C14.8787 30.8368 13.2096 32.5057 12.0492 34.5156C11.8545 34.853 11.8017 35.2539 11.9025 35.6301C12.0033 36.0064 12.2495 36.3272 12.5868 36.5219ZM33.1228 11.9057C33.2955 11.8175 33.4838 11.7644 33.6771 11.7493C33.8703 11.7343 34.0647 11.7577 34.2488 11.8181C34.433 11.8785 34.6034 11.9748 34.7502 12.1014C34.897 12.2279 35.0173 12.3823 35.1041 12.5556C35.191 12.7289 35.2426 12.9177 35.2562 13.1111C35.2697 13.3044 35.2449 13.4986 35.183 13.6823C35.1212 13.866 35.0236 14.0356 34.8958 14.1814C34.7681 14.3272 34.6128 14.4463 34.4388 14.5318L31.4749 16.0123C31.9919 16.8054 32.3121 17.8923 32.3121 19.0938C32.3121 21.526 30.9961 23.5 29.3746 23.5C27.7531 23.5 26.4371 21.526 26.4371 19.0938C26.4371 18.3682 26.5546 17.6838 26.7602 17.0786C26.6236 16.9073 26.5269 16.7077 26.4771 16.4943C26.4273 16.2809 26.4257 16.059 26.4724 15.8449C26.5191 15.6308 26.6129 15.4298 26.7471 15.2565C26.8812 15.0833 27.0523 14.9421 27.2478 14.8432L33.1228 11.9057ZM13.8763 11.9057C13.5285 11.7347 13.1272 11.7082 12.7599 11.8319C12.3926 11.9555 12.089 12.2193 11.9154 12.5658C11.7418 12.9123 11.7121 13.3134 11.8329 13.6817C11.9537 14.0499 12.2152 14.3555 12.5603 14.5318L15.5243 16.0123C14.9573 16.9387 14.6668 18.0078 14.6871 19.0938C14.6871 21.526 16.0031 23.5 17.6246 23.5C19.2461 23.5 20.5621 21.526 20.5621 19.0938C20.5621 18.3682 20.4446 17.6838 20.239 17.0786C20.3756 16.9073 20.4723 16.7077 20.5221 16.4943C20.5719 16.2809 20.5735 16.059 20.5268 15.8449C20.4801 15.6308 20.3863 15.4298 20.2521 15.2565C20.118 15.0833 19.9469 14.9421 19.7513 14.8432L13.8763 11.9057Z" fill="#9100C4"/>
</svg>
