<svg width="333" height="105" viewBox="0 0 333 105" fill="none" xmlns="http://www.w3.org/2000/svg">
<path d="M69.6236 74.0788C65.8478 74.0788 62.5215 73.2997 59.6447 71.7414C56.768 70.1831 54.5205 67.9956 52.9023 65.1787C51.344 62.3019 50.5649 59.0056 50.5649 55.2898C50.5649 51.5739 51.344 48.3076 52.9023 45.4907C54.5205 42.6738 56.768 40.5162 59.6447 39.0179C62.5215 37.4597 65.8478 36.6805 69.6236 36.6805C73.3994 36.6805 76.7257 37.4597 79.6025 39.0179C82.5392 40.5162 84.8167 42.6738 86.4348 45.4907C88.053 48.3076 88.8621 51.5439 88.8621 55.1999C88.8621 58.9157 88.053 62.212 86.4348 65.0888C84.8167 67.9656 82.5392 70.1831 79.6025 71.7414C76.7257 73.2997 73.3994 74.0788 69.6236 74.0788ZM69.6236 68.8646C73.3395 68.8646 76.3361 67.636 78.6136 65.1787C80.891 62.6615 82.0298 59.3352 82.0298 55.1999C82.0298 51.1843 80.891 47.9779 78.6136 45.5806C76.3361 43.1233 73.3395 41.8947 69.6236 41.8947C65.9078 41.8947 62.9411 43.1233 60.7235 45.5806C58.506 48.0379 57.3973 51.2742 57.3973 55.2898C57.3973 59.3652 58.506 62.6615 60.7235 65.1787C63.001 67.636 65.9677 68.8646 69.6236 68.8646ZM135.932 68.2353V73H122.987L122.807 68.6848C118.492 72.1609 114.147 73.899 109.772 73.899C105.816 73.899 102.849 72.7902 100.871 70.5727C98.9536 68.3552 97.9947 65.5084 97.9947 62.0322V42.4341H92.0613V37.6694H104.647V61.313C104.647 63.5905 105.187 65.3885 106.265 66.707C107.404 67.9656 109.082 68.5949 111.3 68.5949C115.375 68.5949 119.211 66.9468 122.807 63.6504V42.4341H116.424V37.6694H129.37V68.2353H135.932ZM154.79 73C147.958 73 144.542 69.5239 144.542 62.5716V42.4341H138.698V37.6694H144.542V25.6229L151.194 23.0158V37.6694H160.544V42.4341H151.194V62.212C151.194 64.4296 151.554 65.9878 152.273 66.8868C152.992 67.7858 154.221 68.2353 155.959 68.2353H161.353V73H154.79ZM202.238 56.7282H173.11C173.53 60.5039 174.878 63.5006 177.156 65.7181C179.433 67.8757 182.34 68.9545 185.876 68.9545C190.79 68.9545 195.255 67.0666 199.271 63.2908L201.608 67.3363C199.87 69.374 197.683 71.0222 195.046 72.2808C192.409 73.4795 189.442 74.0788 186.146 74.0788C182.43 74.0788 179.043 73.2997 175.987 71.7414C172.93 70.1831 170.533 67.9956 168.795 65.1787C167.057 62.3019 166.188 59.0356 166.188 55.3797C166.188 51.6638 166.997 48.3975 168.615 45.5806C170.293 42.7038 172.541 40.5162 175.358 39.0179C178.234 37.4597 181.411 36.6805 184.887 36.6805C190.281 36.6805 194.506 38.3287 197.563 41.625C200.679 44.9213 202.238 49.3864 202.238 55.0201V56.7282ZM195.675 52.5928C195.675 49.1766 194.656 46.4796 192.618 44.5018C190.641 42.524 188.063 41.5351 184.887 41.5351C181.77 41.5351 179.133 42.524 176.976 44.5018C174.818 46.4796 173.53 49.1766 173.11 52.5928H195.675ZM208.885 68.2353H215.897V27.1512H208.885V22.3865H230.281V27.1512H223.268V68.2353H244.305V52.6827H250.238V73H208.885V68.2353ZM263.848 29.9381C262.47 29.9381 261.301 29.5185 260.342 28.6795C259.443 27.7805 258.994 26.6717 258.994 25.3532C258.994 24.0346 259.443 22.9558 260.342 22.1168C261.301 21.2178 262.47 20.7683 263.848 20.7683C265.227 20.7683 266.366 21.2178 267.265 22.1168C268.223 22.9558 268.703 24.0346 268.703 25.3532C268.703 26.6717 268.223 27.7805 267.265 28.6795C266.366 29.5185 265.227 29.9381 263.848 29.9381ZM254.589 68.2353H261.421V42.4341H254.679V37.6694H267.984V68.2353H274.367V73H254.589V68.2353ZM280.264 68.2353H287.276V42.4341H280.354V37.6694H287.276V30.1179C287.276 26.7616 288.145 24.1545 289.883 22.2966C291.681 20.3787 294.348 19.4198 297.885 19.4198C300.581 19.4198 302.829 20.0791 304.627 21.3976C306.485 22.7161 307.504 24.8138 307.684 27.6906L302.559 29.129C302.26 27.4508 301.78 26.1922 301.121 25.3532C300.522 24.5141 299.533 24.0946 298.154 24.0946C295.337 24.0946 293.929 26.1323 293.929 30.2078V37.6694H304.717V42.4341H293.929V68.2353H303.009V73H280.264V68.2353ZM322.913 73C316.081 73 312.665 69.5239 312.665 62.5716V42.4341H306.821V37.6694H312.665V25.6229L319.317 23.0158V37.6694H328.667V42.4341H319.317V62.212C319.317 64.4296 319.677 65.9878 320.396 66.8868C321.115 67.7858 322.344 68.2353 324.082 68.2353H329.476V73H322.913Z" fill="#540072"/>
<path d="M35.6613 23.6562C49.4672 35.0002 42.8697 64.647 42.8697 64.647L0.308934 29.0463C0.308934 29.0463 21.8553 12.3122 35.6613 23.6562Z" fill="#540072"/>
<path d="M10.1201 42.441L48.5608 76.394H10.1201V42.441Z" fill="#FF9900"/>
</svg>
