<svg width="197" height="62" viewBox="0 0 197 62" fill="none" xmlns="http://www.w3.org/2000/svg">
<path d="M41.1574 43.6377C38.9254 43.6377 36.9591 43.1771 35.2585 42.256C33.5579 41.3349 32.2294 40.0417 31.2728 38.3766C30.3516 36.676 29.8911 34.7274 29.8911 32.5309C29.8911 30.3343 30.3516 28.4034 31.2728 26.7383C32.2294 25.0731 33.5579 23.7977 35.2585 22.912C36.9591 21.9909 38.9254 21.5303 41.1574 21.5303C43.3894 21.5303 45.3556 21.9909 47.0562 22.912C48.7922 23.7977 50.1385 25.0731 51.0951 26.7383C52.0516 28.4034 52.5299 30.3166 52.5299 32.4777C52.5299 34.6743 52.0516 36.6229 51.0951 38.3234C50.1385 40.024 48.7922 41.3349 47.0562 42.256C45.3556 43.1771 43.3894 43.6377 41.1574 43.6377ZM41.1574 40.5554C43.3539 40.5554 45.1254 39.8291 46.4716 38.3766C47.8179 36.8886 48.4911 34.9223 48.4911 32.4777C48.4911 30.104 47.8179 28.2086 46.4716 26.7914C45.1254 25.3389 43.3539 24.6126 41.1574 24.6126C38.9608 24.6126 37.2071 25.3389 35.8962 26.7914C34.5854 28.244 33.9299 30.1571 33.9299 32.5309C33.9299 34.94 34.5854 36.8886 35.8962 38.3766C37.2425 39.8291 38.9962 40.5554 41.1574 40.5554ZM80.3548 40.1834V43H72.7022L72.5959 40.4491C70.0451 42.504 67.4765 43.5314 64.8902 43.5314C62.5519 43.5314 60.7982 42.876 59.6291 41.5651C58.4953 40.2543 57.9285 38.5714 57.9285 36.5166V24.9314H54.4211V22.1149H61.8611V36.0914C61.8611 37.4377 62.1799 38.5006 62.8176 39.28C63.4908 40.024 64.4828 40.396 65.7936 40.396C68.2028 40.396 70.4702 39.4217 72.5959 37.4731V24.9314H68.8228V22.1149H76.4753V40.1834H80.3548ZM91.5023 43C87.4635 43 85.444 40.9451 85.444 36.8354V24.9314H81.9897V22.1149H85.444V14.9937L89.3766 13.4526V22.1149H94.9035V24.9314H89.3766V36.6229C89.3766 37.9337 89.5892 38.8549 90.0143 39.3863C90.4395 39.9177 91.1657 40.1834 92.1932 40.1834H95.3817V43H91.5023ZM119.55 33.3811H102.332C102.58 35.6131 103.377 37.3846 104.723 38.6954C106.07 39.9709 107.788 40.6086 109.878 40.6086C112.783 40.6086 115.423 39.4926 117.796 37.2606L119.178 39.652C118.151 40.8566 116.858 41.8309 115.299 42.5749C113.74 43.2834 111.986 43.6377 110.038 43.6377C107.841 43.6377 105.839 43.1771 104.032 42.256C102.226 41.3349 100.808 40.0417 99.781 38.3766C98.7535 36.676 98.2398 34.7451 98.2398 32.584C98.2398 30.3874 98.7181 28.4566 99.6747 26.7914C100.667 25.0909 101.995 23.7977 103.66 22.912C105.361 21.9909 107.239 21.5303 109.294 21.5303C112.482 21.5303 114.98 22.5046 116.787 24.4531C118.629 26.4017 119.55 29.0411 119.55 32.3714V33.3811ZM115.671 30.9366C115.671 28.9171 115.068 27.3229 113.864 26.1537C112.695 24.9846 111.171 24.4 109.294 24.4C107.451 24.4 105.892 24.9846 104.617 26.1537C103.342 27.3229 102.58 28.9171 102.332 30.9366H115.671ZM123.479 40.1834H127.625V15.8971H123.479V13.0806H136.127V15.8971H131.982V40.1834H144.418V30.9897H147.925V43H123.479V40.1834ZM155.97 17.5446C155.156 17.5446 154.465 17.2966 153.898 16.8006C153.366 16.2691 153.101 15.6137 153.101 14.8343C153.101 14.0549 153.366 13.4171 153.898 12.9211C154.465 12.3897 155.156 12.124 155.97 12.124C156.785 12.124 157.458 12.3897 157.99 12.9211C158.557 13.4171 158.84 14.0549 158.84 14.8343C158.84 15.6137 158.557 16.2691 157.99 16.8006C157.458 17.2966 156.785 17.5446 155.97 17.5446ZM150.497 40.1834H154.536V24.9314H150.55V22.1149H158.415V40.1834H162.188V43H150.497V40.1834ZM165.674 40.1834H169.82V24.9314H165.728V22.1149H169.82V17.6509C169.82 15.6669 170.333 14.1257 171.361 13.0274C172.424 11.8937 174 11.3269 176.09 11.3269C177.685 11.3269 179.013 11.7166 180.076 12.496C181.174 13.2754 181.777 14.5154 181.883 16.216L178.854 17.0663C178.677 16.0743 178.393 15.3303 178.004 14.8343C177.649 14.3383 177.065 14.0903 176.25 14.0903C174.585 14.0903 173.752 15.2949 173.752 17.704V22.1149H180.129V24.9314H173.752V40.1834H179.12V43H165.674V40.1834ZM190.886 43C186.847 43 184.827 40.9451 184.827 36.8354V24.9314H181.373V22.1149H184.827V14.9937L188.76 13.4526V22.1149H194.287V24.9314H188.76V36.6229C188.76 37.9337 188.973 38.8549 189.398 39.3863C189.823 39.9177 190.549 40.1834 191.577 40.1834H194.765V43H190.886Z" fill="white"/>
<path d="M21.0804 13.984C29.2415 20.6899 25.3415 38.2151 25.3415 38.2151L0.182375 17.1703C0.182375 17.1703 12.9192 7.2782 21.0804 13.984Z" fill="white"/>
<path d="M5.98242 25.0884L28.706 45.1592H5.98242V25.0884Z" fill="#FF9900"/>
</svg>
