<svg width="48" height="48" viewBox="0 0 48 48" fill="none" xmlns="http://www.w3.org/2000/svg">
<path d="M24 45C18.4305 45 13.089 42.7875 9.15076 38.8492C5.21249 34.911 3 29.5695 3 24C3 18.4305 5.21249 13.089 9.15076 9.15076C13.089 5.21249 18.4305 3 24 3C29.5695 3 34.911 5.21249 38.8492 9.15076C42.7875 13.089 45 18.4305 45 24C45 29.5695 42.7875 34.911 38.8492 38.8492C34.911 42.7875 29.5695 45 24 45ZM24 48C30.3652 48 36.4697 45.4714 40.9706 40.9706C45.4714 36.4697 48 30.3652 48 24C48 17.6348 45.4714 11.5303 40.9706 7.02944C36.4697 2.52856 30.3652 0 24 0C17.6348 0 11.5303 2.52856 7.02944 7.02944C2.52856 11.5303 0 17.6348 0 24C0 30.3652 2.52856 36.4697 7.02944 40.9706C11.5303 45.4714 17.6348 48 24 48Z" fill="white"/>
<path d="M36.9933 28.5C37.2566 28.9561 37.3952 29.4734 37.3952 30C37.3952 30.5266 37.2566 31.0439 36.9933 31.5C35.677 33.7811 33.7832 35.6752 31.5023 36.9918C29.2214 38.3084 26.6339 39.0011 24.0003 39C21.3672 39.0005 18.7804 38.3077 16.5001 36.9911C14.2198 35.6745 12.3264 33.7806 11.0103 31.5C10.7471 31.0442 10.6085 30.5271 10.6084 30.0008C10.6083 29.4744 10.7466 28.9573 11.0096 28.5013C11.2725 28.0454 11.6508 27.6666 12.1064 27.4031C12.562 27.1396 13.079 27.0005 13.6053 27H34.3953C34.9219 27 35.4392 27.1386 35.8953 27.4019C36.3513 27.6652 36.73 28.044 36.9933 28.5ZM21.0003 19.5C21.0003 21.984 19.6563 19.5 18.0003 19.5C16.3443 19.5 15.0003 21.984 15.0003 19.5C15.0003 17.016 16.3443 15 18.0003 15C19.6563 15 21.0003 17.016 21.0003 19.5ZM33.0003 19.5C33.0003 21.984 31.6563 19.5 30.0003 19.5C28.3443 19.5 27.0003 21.984 27.0003 19.5C27.0003 17.016 28.3443 15 30.0003 15C31.6563 15 33.0003 17.016 33.0003 19.5Z" fill="white"/>
</svg>
